<?xml version="1.0" standalone="no"?>
<!DOCTYPE svg PUBLIC "-//W3C//DTD SVG 20010904//EN"
 "http://www.w3.org/TR/2001/REC-SVG-20010904/DTD/svg10.dtd">
<svg version="1.0" xmlns="http://www.w3.org/2000/svg"
 width="323.000000pt" height="333.000000pt" viewBox="0 0 323.000000 333.000000"
 preserveAspectRatio="xMidYMid meet">
<metadata>
Created by potrace 1.15, written by Peter Selinger 2001-2017
</metadata>
<g transform="translate(0.000000,333.000000) scale(0.100000,-0.100000)"
fill="#000000" stroke="none">
<path d="M1495 3094 c-197 -31 -367 -112 -527 -253 -94 -84 -203 -251 -252
-388 -18 -51 -37 -84 -67 -114 -62 -62 -84 -118 -84 -214 0 -67 5 -88 27 -130
46 -88 148 -164 219 -165 l26 0 -18 67 c-11 37 -19 71 -19 74 0 4 157 -45 350
-109 334 -111 350 -118 355 -144 13 -59 78 -108 142 -108 68 0 133 67 133 138
0 116 -129 181 -223 111 l-31 -22 -369 122 -370 123 6 97 c35 578 616 951
1159 745 237 -90 435 -300 508 -538 48 -155 52 -356 11 -486 -11 -36 -21 -68
-21 -71 0 -11 78 10 118 30 48 25 104 84 133 141 18 35 23 61 23 120 0 93 -28
163 -88 218 -33 31 -49 57 -74 128 -124 345 -435 588 -812 634 -105 12 -142
12 -255 -6z"/>
<path d="M1498 2884 c-312 -56 -558 -306 -613 -622 -24 -138 -25 -137 44 -160
l59 -20 7 72 c8 85 20 147 41 202 16 41 16 42 97 59 213 46 322 106 548 304
l47 41 43 -57 c67 -90 158 -182 219 -222 31 -20 99 -49 152 -66 l97 -30 15
-48 c56 -172 44 -342 -36 -502 -188 -381 -702 -474 -1012 -184 -39 37 -87 91
-106 122 -33 51 -39 56 -107 77 -40 13 -75 21 -78 19 -2 -3 14 -41 36 -86 103
-206 293 -354 527 -409 82 -19 302 -14 372 9 157 52 257 113 352 216 139 151
207 324 208 524 0 214 -75 399 -222 545 -119 118 -234 180 -390 213 -108 22
-192 23 -300 3z"/>
<path d="M1249 2337 c-90 -60 -88 -181 4 -237 118 -73 259 69 187 188 -43 70
-128 92 -191 49z"/>
<path d="M1903 2346 c-98 -44 -96 -211 2 -252 66 -27 136 -9 174 45 42 58 24
159 -34 197 -35 23 -103 27 -142 10z"/>
<path d="M2377 1053 c-29 -33 -97 -220 -147 -408 -17 -62 -30 -89 -58 -118
-39 -40 -147 -117 -165 -117 -16 0 -1 166 24 269 12 50 20 93 18 95 -2 2 -17
6 -34 8 l-29 3 -36 -142 c-34 -139 -36 -142 -79 -177 -52 -44 -130 -91 -137
-83 -3 3 0 50 7 105 9 72 10 107 2 124 -9 21 -4 30 54 91 35 37 61 72 58 76
-2 5 -17 12 -32 15 -23 6 -33 0 -85 -58 -54 -60 -63 -66 -99 -66 -21 0 -39 3
-39 6 0 3 26 67 58 142 33 75 62 149 65 164 9 36 -14 58 -62 58 -70 0 -77 -16
-116 -246 -14 -89 -36 -179 -52 -220 -26 -64 -32 -71 -106 -121 -43 -29 -82
-53 -87 -53 -26 0 10 206 54 312 24 56 21 70 -12 67 -18 -2 -36 4 -52 19 -38
36 -89 30 -135 -15 -45 -45 -117 -153 -141 -212 -21 -54 -15 -141 13 -179 34
-46 73 -43 146 13 l47 36 0 -30 c0 -36 26 -56 83 -66 31 -6 45 -3 77 19 22 14
37 20 34 12 -3 -9 6 -15 26 -20 42 -8 45 -5 59 49 6 25 21 70 32 100 20 55 21
55 62 55 24 0 53 7 65 16 21 15 22 14 22 -15 0 -17 -7 -64 -17 -106 -15 -71
-15 -76 1 -94 10 -11 31 -25 47 -31 37 -16 96 5 154 54 l39 33 32 -33 c53 -57
114 -46 210 37 l48 42 11 -24 c26 -63 73 -99 126 -99 32 0 44 7 85 53 27 30
69 89 93 133 l45 80 55 -3 c71 -5 134 27 139 70 2 15 2 27 0 27 -2 0 -30 -11
-63 -25 -33 -13 -70 -25 -81 -25 -20 0 -21 4 -17 63 5 52 2 66 -15 87 -20 24
-20 25 -56 7 -22 -10 -43 -30 -53 -51 -16 -34 -16 -36 9 -73 l26 -38 -41 -78
c-22 -43 -64 -104 -94 -135 -52 -54 -55 -56 -69 -38 -17 24 -19 138 -2 204 6
25 33 76 60 112 57 79 148 254 148 286 0 27 -53 74 -84 74 -13 0 -30 -8 -39
-17z m-1104 -325 l21 -28 -27 -76 c-30 -85 -67 -137 -125 -178 -45 -31 -68
-27 -77 14 -13 58 27 142 122 258 39 48 56 50 86 10z"/>
<path d="M524 1043 c-12 -2 -39 -19 -60 -37 l-39 -34 25 -20 25 -20 28 24 c33
28 59 31 78 8 11 -14 9 -19 -11 -35 l-25 -19 23 -18 c21 -16 22 -21 13 -64 -9
-39 -79 -230 -150 -406 l-21 -53 41 3 41 3 58 160 c32 88 65 177 74 197 9 21
19 72 23 114 l6 77 53 24 c73 33 104 28 127 -19 10 -21 21 -61 24 -90 5 -51 3
-55 -39 -105 l-43 -52 -62 0 c-55 -1 -67 -5 -95 -31 l-33 -30 23 -20 c37 -31
83 -35 130 -11 23 12 44 21 48 21 4 0 4 -44 0 -98 -6 -95 -6 -99 24 -157 16
-33 45 -78 63 -100 l34 -39 13 24 c11 20 8 31 -21 89 -33 63 -34 71 -34 177 0
92 -3 115 -17 131 -17 18 -16 21 32 68 l50 49 -1 71 c-1 93 -18 154 -49 177
-14 10 -50 23 -81 30 -53 11 -59 10 -107 -15 -46 -24 -51 -25 -64 -10 -11 14
-72 45 -80 42 -2 -1 -13 -4 -24 -6z"/>
</g>
</svg>
